<svg xmlns="http://www.w3.org/2000/svg" xmlns:xlink="http://www.w3.org/1999/xlink" fill="none" width="246" height="367" viewBox="0 0 246 367">
    <defs>
        <path id="reuse-0" fill="#000" d="M78.4 44.5V22.7h4.5v8.2h.2l.8-1.4 1.5-1.1a6.2 6.2 0 0 1 8 3.3c.7 1.2 1 2.8 1 4.6 0 1.9-.3 3.4-1 4.7a6.1 6.1 0 0 1-5.8 3.8c-.8 0-1.5-.2-2.1-.5-.6-.3-1.1-.6-1.5-1l-1-1.4H83v2.6h-4.5Zm4.4-8.2c0 1 .2 1.8.4 2.6.3.7.7 1.3 1.2 1.7a3 3 0 0 0 1.9.6 3 3 0 0 0 1.9-.7c.5-.4.9-1 1.1-1.7.3-.7.4-1.5.4-2.5s-.1-1.8-.4-2.5c-.2-.7-.6-1.3-1.1-1.7a3 3 0 0 0-2-.6 3 3 0 0 0-1.8.6c-.5.4-.9 1-1.2 1.7-.2.7-.4 1.5-.4 2.5ZM102 22.7v21.8h-4.5V22.7h4.5Zm11 22.1a7.2 7.2 0 0 1-7-4c-.7-1.3-1-2.7-1-4.4 0-1.7.3-3.2 1-4.4a7.1 7.1 0 0 1 2.8-3c1.2-.7 2.6-1 4.3-1 1.6 0 3 .3 4.2 1 1.2.7 2.2 1.7 2.8 3 .7 1.2 1 2.7 1 4.4 0 1.7-.3 3.1-1 4.4a7.2 7.2 0 0 1-2.8 3c-1.2.7-2.6 1-4.2 1Zm0-3.5c.8 0 1.5-.2 2-.6.5-.5.8-1 1.1-1.8.3-.7.4-1.6.4-2.5 0-1-.1-1.9-.4-2.6a4 4 0 0 0-1.1-1.8c-.5-.4-1.2-.6-2-.6-.7 0-1.3.2-1.8.6a4 4 0 0 0-1.2 1.8c-.3.7-.4 1.6-.4 2.6 0 .9.1 1.8.4 2.5a4 4 0 0 0 1.2 1.8 3 3 0 0 0 1.9.6Zm18.4 3.5c-1.6 0-3-.3-4.3-1a7.2 7.2 0 0 1-2.7-3c-.7-1.3-1-2.8-1-4.4 0-1.7.3-3.2 1-4.4a7.2 7.2 0 0 1 2.7-3c1.2-.7 2.7-1 4.3-1 1.5 0 2.7.2 3.8.7 1 .5 1.9 1.2 2.5 2.2.6 1 1 2 1 3.3h-4.2c-.1-.8-.5-1.5-1-2s-1.2-.7-2-.7a3 3 0 0 0-1.8.5c-.6.4-1 1-1.3 1.7a7 7 0 0 0-.4 2.6c0 1 .2 2 .4 2.7.3.7.7 1.3 1.3 1.7a3 3 0 0 0 1.8.5c.5 0 1 0 1.4-.3.4-.2.8-.5 1-1 .3-.3.5-.8.6-1.4h4.3c-.1 1.3-.5 2.4-1 3.3-.7 1-1.5 1.7-2.6 2.2-1 .6-2.3.8-3.8.8Zm14.4-5v-5.5h.6l5.3-6.2h5.2l-7 8.3h-1.1l-3 3.4Zm-4.1 4.7V22.7h4.5v21.8h-4.5Zm10.2 0-4.8-7.1 3-3.2 7.1 10.3h-5.3Zm11.8-9.5v9.5H159V22.7h4.4V31h.2c.4-1 1-1.7 1.8-2.2.8-.6 1.9-.9 3.1-.9 1.2 0 2.1.3 3 .8a5 5 0 0 1 2 2c.4 1 .7 2.1.7 3.4v10.4h-4.6v-9.6c0-1-.2-1.8-.7-2.4-.5-.5-1.3-.8-2.2-.8-.6 0-1.1.1-1.6.4-.5.3-.9.6-1.1 1.1-.3.5-.4 1.1-.4 1.8Zm18.8 9.8c-1 0-2-.2-2.8-.5-.8-.4-1.4-1-2-1.7-.4-.7-.6-1.6-.6-2.7 0-.9.1-1.6.5-2.3a4 4 0 0 1 1.3-1.5l2-.8a58.9 58.9 0 0 0 5.9-1c.3-.3.4-.5.4-.9a2 2 0 0 0-.7-1.6c-.4-.4-1-.6-1.7-.6-.9 0-1.5.2-2 .6-.5.3-.8.8-1 1.3l-4.1-.3a5.7 5.7 0 0 1 3.6-4.3 10.5 10.5 0 0 1 6-.3c1 .3 1.7.6 2.3 1a4.8 4.8 0 0 1 2.1 4.3v11h-4.3v-2.3h-.1a4.6 4.6 0 0 1-2.6 2.3c-.7.2-1.4.3-2.2.3Zm1.3-3.1c.7 0 1.3-.2 1.8-.4.5-.3.9-.6 1.2-1.1.3-.5.4-1 .4-1.5v-1.8l-.6.3a10.7 10.7 0 0 1-1.7.3 263.4 263.4 0 0 0-2.2.5l-1 .7c-.2.3-.3.7-.3 1 0 .7.2 1.2.7 1.5.4.3 1 .5 1.7.5Zm22-4.2v-9.4h4.5v16.4h-4.4v-3h-.1c-.4 1-1 1.8-1.9 2.3-.8.6-1.9 1-3.1 1-1.1 0-2-.3-2.9-.8a5.1 5.1 0 0 1-2-2.2c-.4-.9-.6-2-.7-3.2V28h4.6v9.6c0 1 .3 1.8.8 2.3.5.6 1.2.9 2 .9.6 0 1-.1 1.6-.4a3 3 0 0 0 1.1-1.1c.3-.5.4-1.1.4-1.9Zm21.7-4.7-4.1.3-.5-1c-.2-.3-.5-.5-1-.7-.3-.2-.7-.3-1.3-.3-.7 0-1.3.2-1.7.5-.5.3-.8.7-.8 1.2 0 .4.2.7.5 1l1.6.6 3 .6c1.6.3 2.7.8 3.5 1.6.8.7 1.2 1.6 1.2 2.8 0 1.1-.3 2-1 2.9-.6.8-1.4 1.4-2.5 1.8-1.1.5-2.4.7-3.8.7-2.2 0-3.9-.4-5.2-1.3-1.2-1-2-2.2-2.2-3.7l4.4-.3c.2.7.5 1.2 1 1.5.5.4 1.2.5 2 .5s1.5-.1 2-.4c.4-.3.7-.7.7-1.2 0-.4-.2-.8-.5-1-.4-.3-.9-.5-1.6-.6l-2.8-.6a6.8 6.8 0 0 1-3.6-1.7 4.1 4.1 0 0 1-1.2-3c0-1 .3-2 .9-2.7.5-.8 1.4-1.3 2.4-1.8 1-.4 2.3-.6 3.7-.6 2 0 3.7.5 4.8 1.3a5 5 0 0 1 2.1 3.6Z"/>
    </defs>
    <path fill="#E9033A" stroke="#000" stroke-width="6" d="M63 123.5h60v60H63z"/>
    <path stroke="#000" stroke-width="6" d="M63 63.5h60v60H63zM123 63.5h60v60h-60z"/>
    <path fill="#348BDC" stroke="#000" stroke-width="6" d="M183 63.5h60v60h-60zM63 303.5h60v60H63z"/>
    <path fill="#FFBE5C" stroke="#000" stroke-width="6" d="M183 243.5h60v60h-60z"/>
    <path stroke="#000" stroke-width="6" d="M3 243.5h120v60H3zM3 243.5v-120h60v120z"/>
    <path fill="#000" fill-rule="evenodd" d="M123 240.5H66v-54h114v174h-54v-117h-3v-3Zm-3 6H60v-66h126v186h-66v-120Z" clip-rule="evenodd"/>
    <path stroke="#000" stroke-width="6" d="M63 3.5h180v60H63z"/>
    <use xlink:href="#reuse-0"/>
    <use xlink:href="#reuse-0"/>
    <path fill="#348BDC" stroke="#000" stroke-width="6" d="M3 3.5h60v60H3z"/>
</svg>