<svg xmlns="http://www.w3.org/2000/svg" fill="none" width="388" height="88" viewBox="0 0 388 88">
    <path fill="#0571CA" stroke="#000" stroke-width="7" d="M4 4h80v80H4z"/>
    <path fill="#000" d="M84 4V.5h-3.5V4H84Zm0 80h-3.5v3.5H84V84Zm300 0v3.5h3.5V84H384Zm0-80h3.5V.5H384V4ZM84 7.5h150v-7H84v7ZM87.5 84V4h-7v80h7ZM234 80.5H84v7h150v-7Zm150 0H234v7h150v-7ZM380.5 4v80h7V4h-7ZM234 7.5h150v-7H234v7ZM115 61V26h7.3v13.2h.2c.3-.7.8-1.4 1.4-2.1.6-.8 1.4-1.4 2.4-1.9s2.2-.7 3.7-.7a9.8 9.8 0 0 1 9.1 6c1 2 1.5 4.4 1.5 7.4s-.5 5.4-1.4 7.4c-1 2-2.3 3.6-3.9 4.6a9.8 9.8 0 0 1-5.4 1.5 7.4 7.4 0 0 1-6-2.5 9 9 0 0 1-1.4-2h-.3V61H115Zm7.1-13c0 1.5.3 2.8.7 4a6 6 0 0 0 1.9 2.7c.8.6 1.8 1 3 1 1.1 0 2.1-.4 3-1a6 6 0 0 0 1.8-2.8c.4-1.1.7-2.5.7-4s-.3-2.8-.7-4a6 6 0 0 0-1.8-2.7c-.9-.6-1.9-1-3-1-1.2 0-2.2.4-3 1-.9.6-1.5 1.5-2 2.7-.3 1.1-.6 2.5-.6 4Zm30.6-22v35h-7.3V26h7.3Zm17.6 35.5c-2.6 0-5-.6-6.8-1.7-2-1.1-3.5-2.7-4.5-4.7s-1.6-4.4-1.6-7c0-2.8.6-5.2 1.6-7.2s2.5-3.6 4.5-4.7c1.9-1.2 4.2-1.7 6.8-1.7 2.7 0 5 .5 6.9 1.7 2 1.1 3.4 2.7 4.4 4.7 1 2 1.6 4.4 1.6 7.1 0 2.7-.5 5-1.6 7-1 2.1-2.5 3.7-4.4 4.8-2 1.1-4.2 1.7-6.9 1.7Zm0-5.6c1.3 0 2.3-.4 3-1 .9-.7 1.5-1.7 1.9-2.9.4-1.2.6-2.5.6-4 0-1.6-.2-3-.6-4.1-.4-1.2-1-2.1-1.8-2.8-.8-.7-1.8-1-3-1-1.3 0-2.3.3-3.1 1-.8.6-1.5 1.6-1.9 2.8-.4 1.2-.6 2.5-.6 4 0 1.6.2 3 .6 4.1.4 1.2 1 2.2 1.9 2.9.8.6 1.8 1 3 1Zm29.5 5.6c-2.7 0-5-.6-7-1.7-1.9-1.1-3.4-2.7-4.4-4.8-1-2-1.5-4.3-1.5-7s.5-5 1.5-7 2.6-3.7 4.5-4.8c1.9-1.1 4.2-1.7 6.8-1.7 2.3 0 4.3.4 6 1.2a10 10 0 0 1 5.8 8.8h-6.9a5.3 5.3 0 0 0-1.5-3.2 4.4 4.4 0 0 0-3.3-1.2c-1 0-2 .3-3 1-.7.6-1.4 1.4-1.8 2.6-.5 1.2-.7 2.6-.7 4.2 0 1.7.2 3.1.6 4.3a6 6 0 0 0 2 2.6c.8.7 1.8 1 3 1 .8 0 1.5-.2 2.2-.5.6-.4 1.2-.9 1.6-1.5.5-.7.8-1.5.9-2.4h6.9c-.2 2-.7 3.8-1.7 5.3a9.9 9.9 0 0 1-4 3.5c-1.7.9-3.7 1.3-6 1.3Zm22.9-8v-8.7h1l8.4-10h8.4L229.2 48h-1.7l-4.8 5.5ZM216 61V26h7.3v35H216Zm16.4 0-7.7-11.4 4.8-5.1L241 61h-8.5Zm18.8-15.1V61H244V26h7v13.4h.4a7.4 7.4 0 0 1 2.9-3.6c1.3-.9 3-1.3 5-1.3 1.7 0 3.3.4 4.7 1.2a8 8 0 0 1 3.2 3.4c.7 1.4 1 3.2 1 5.2V61H261V45.6c0-1.6-.4-2.8-1.2-3.7-.8-1-2-1.4-3.5-1.4-1 0-1.8.2-2.6.6-.7.5-1.3 1-1.8 1.9-.4.8-.6 1.7-.6 2.9Zm30.2 15.6a11 11 0 0 1-4.5-.9 7.2 7.2 0 0 1-3.1-2.6 7.8 7.8 0 0 1-1.1-4.3c0-1.5.2-2.7.8-3.7.5-1 1.2-1.8 2.1-2.4 1-.6 2-1 3.2-1.3l3.7-.7a94 94 0 0 0 3.7-.4c1-.2 1.6-.4 2-.7.4-.3.6-.7.6-1.2v-.1c0-1.1-.3-2-1-2.5-.7-.6-1.6-1-2.8-1a5 5 0 0 0-3.2 1 4 4 0 0 0-1.5 2.1l-6.7-.5a9.1 9.1 0 0 1 5.9-6.9 16.7 16.7 0 0 1 9.7-.4c1.3.3 2.5.9 3.5 1.6a7.7 7.7 0 0 1 3.4 6.7V61h-6.9v-3.6h-.2A7.4 7.4 0 0 1 285 61c-1 .3-2.1.5-3.4.5Zm2-5c1.1 0 2-.2 2.9-.6a5 5 0 0 0 1.9-1.8c.5-.7.7-1.5.7-2.5V49l-1 .4a17 17 0 0 1-2.7.6l-1.4.1a9 9 0 0 0-2.2.6c-.6.3-1.1.7-1.5 1.1-.3.5-.5 1-.5 1.7 0 1 .4 1.8 1 2.3.8.5 1.7.8 2.8.8Zm35.1-6.6v-15h7.3V61h-7v-4.8h-.3a7.7 7.7 0 0 1-3 3.7c-1.3 1-3 1.4-4.9 1.4a8.2 8.2 0 0 1-7.7-4.6c-.8-1.4-1.2-3.2-1.2-5.2V34.8h7.3v15.4c0 1.5.4 2.8 1.2 3.7.9.9 2 1.3 3.3 1.3 1 0 1.7-.2 2.5-.6.7-.4 1.4-1 1.8-1.8.5-.8.7-1.8.7-3Zm34.9-7.6-6.7.4c0-.6-.3-1-.7-1.5-.4-.5-.9-.9-1.5-1.1a5 5 0 0 0-2.2-.5c-1 0-2 .3-2.8.7-.8.5-1.2 1.1-1.2 2 0 .5.3 1 .8 1.5a6 6 0 0 0 2.6 1l4.7 1c2.6.5 4.4 1.4 5.7 2.5a6 6 0 0 1 1.9 4.6c0 1.7-.5 3.2-1.5 4.5a9.8 9.8 0 0 1-4.2 3c-1.7.8-3.7 1.1-6 1.1-3.4 0-6.2-.7-8.3-2.2a8.4 8.4 0 0 1-3.6-5.9l7.2-.4c.2 1.1.7 1.9 1.5 2.5.9.5 2 .8 3.2.8 1.3 0 2.3-.3 3.1-.8.8-.5 1.2-1.1 1.2-1.9a2 2 0 0 0-.8-1.6 6 6 0 0 0-2.6-1l-4.5-.9c-2.6-.5-4.5-1.4-5.7-2.7a6.6 6.6 0 0 1-1.9-4.8 7 7 0 0 1 1.4-4.3c1-1.2 2.2-2.2 3.9-2.8a16 16 0 0 1 5.8-1c3.3 0 6 .7 7.8 2 2 1.5 3 3.4 3.4 5.8Z"/>
</svg>