<svg xmlns="http://www.w3.org/2000/svg" fill="none" width="40" height="41" viewBox="0 0 40 40">
    <path fill="#fff" d="M0 .5h40v40H0z"/>
    <path fill="#000" fill-opacity=".85" d="M3.428 16.547V9.81h4.469v1.188H4.876v1.544h2.702v1.187H4.876v2.818H3.428Zm6.79 0H8.792V9.81h2.605c.329 0 .621.052.879.155.257.096.473.238.646.425.18.186.316.411.406.675.09.264.135.56.135.888 0 .476-.103.885-.31 1.226a1.468 1.468 0 0 1-.877.675l1.322 2.693h-1.583l-1.13-2.5h-.665v2.5Zm.83-3.62c.342 0 .577-.064.706-.192.135-.129.202-.341.202-.637v-.29c0-.296-.067-.508-.202-.637-.13-.128-.364-.193-.705-.193h-.83v1.95h.83Zm3.134 3.62v-1.071h1.447v-4.594h-1.447V9.81h4.343v1.072h-1.448v4.594h1.448v1.07h-4.343Zm5.294-6.737h2.172c.907 0 1.58.29 2.017.869.438.58.656 1.412.656 2.5 0 1.087-.219 1.92-.656 2.5-.438.578-1.11.868-2.017.868h-2.172V9.81Zm2.075 5.598c.432 0 .747-.138.946-.415.2-.277.3-.679.3-1.206V12.56c0-.521-.1-.92-.3-1.197-.2-.276-.514-.415-.946-.415h-.646v4.459h.646Zm6.907 1.139-.425-1.622H26.19l-.415 1.622h-1.467l1.824-6.737h2.046l1.824 6.737h-1.544Zm-1.303-5.337h-.077l-.657 2.548h1.39l-.656-2.548Zm4.677 5.337v-2.384L29.699 9.81h1.612l.714 1.564.521 1.322h.077l.522-1.322.714-1.564h1.553l-2.132 4.353v2.384h-1.448ZM4.586 20.069H4.48v4.478H3.245V17.81h1.737l1.535 4.479h.106V17.81h1.235v6.737H6.121l-1.535-4.478Zm4.195 4.478v-1.071h1.448v-4.594H8.78V17.81h4.343v1.072h-1.448v4.594h1.448v1.07H8.78Zm8.643-.956h-.086a2.426 2.426 0 0 1-.213.406 1.574 1.574 0 0 1-.308.347 1.47 1.47 0 0 1-.435.232c-.16.058-.344.087-.55.087-.328 0-.62-.078-.878-.232a1.901 1.901 0 0 1-.637-.675 3.61 3.61 0 0 1-.396-1.081 7.474 7.474 0 0 1-.125-1.438c0-1.146.209-2.02.627-2.625.418-.612 1.065-.917 1.94-.917.347 0 .653.048.917.144.264.09.489.222.675.396.193.167.351.37.473.608s.219.502.29.791l-1.351.329a3.73 3.73 0 0 0-.136-.406 1.245 1.245 0 0 0-.183-.357.864.864 0 0 0-.714-.338c-.367 0-.627.152-.782.454-.148.302-.222.727-.222 1.274v1.1c0 .547.08.985.242 1.313.167.328.46.492.878.492.328 0 .572-.097.733-.29.161-.193.241-.44.241-.743v-.492h-1.148v-1.023h2.442v3.6h-1.294v-.956Zm5.18-1.862h-1.7v2.818h-1.456V17.81h1.457v2.732h1.698V17.81h1.458v6.737h-1.458v-2.818Zm5.275-2.732v5.55H26.43v-5.55h-1.94V17.81h5.328v1.188h-1.94Zm-24.49 13.55V25.81h2.607c.328 0 .62.052.878.155.257.096.473.238.646.425.18.186.316.411.406.675.09.264.135.56.135.888 0 .328-.045.624-.135.888a1.79 1.79 0 0 1-1.052 1.11 2.49 2.49 0 0 1-.878.145H4.847v2.45H3.39Zm1.458-3.62h.782c.34 0 .576-.064.704-.192.135-.129.203-.341.203-.637v-.29c0-.296-.068-.508-.203-.637-.128-.128-.363-.193-.704-.193h-.782v1.95Zm5.189-3.117v4.266c0 .212.006.409.019.589.02.174.058.322.116.444a.713.713 0 0 0 .28.29c.122.064.29.096.501.096.213 0 .38-.032.502-.097a.652.652 0 0 0 .27-.29c.065-.121.103-.27.116-.443.02-.18.03-.377.03-.589V25.81h1.447v4.073c0 .463-.032.869-.097 1.216a1.96 1.96 0 0 1-.347.869 1.564 1.564 0 0 1-.724.521c-.309.116-.708.174-1.197.174-.489 0-.887-.058-1.196-.174a1.564 1.564 0 0 1-.724-.521 2.046 2.046 0 0 1-.357-.869 7.482 7.482 0 0 1-.087-1.216V25.81h1.448Zm6.211 6.853c-.566 0-1.058-.094-1.476-.28a2.656 2.656 0 0 1-1.014-.763l.84-.926c.244.27.511.47.8.598.297.129.596.193.898.193.348 0 .612-.077.792-.231.18-.155.27-.377.27-.666 0-.238-.07-.419-.212-.54-.136-.123-.367-.21-.695-.261l-.705-.116c-.605-.103-1.042-.325-1.312-.666-.27-.348-.406-.769-.406-1.264 0-.65.213-1.152.637-1.506.425-.36 1.02-.54 1.786-.54.52 0 .974.08 1.36.24.387.162.699.38.937.657l-.82.917c-.18-.2-.393-.354-.638-.463a1.915 1.915 0 0 0-.83-.174c-.65 0-.974.267-.974.801 0 .232.07.405.212.521.148.116.386.203.714.26l.705.126c.547.097.968.303 1.264.618.296.315.444.74.444 1.274 0 .315-.055.608-.164.878-.11.264-.274.496-.492.695a2.354 2.354 0 0 1-.811.454c-.315.109-.685.164-1.11.164Zm6.356-2.934h-1.698v2.818h-1.457V25.81h1.457v2.732h1.698V25.81h1.458v6.737h-1.458v-2.818Z"/>
</svg>