<svg xmlns="http://www.w3.org/2000/svg" fill="none" width="156" height="27" viewBox="0 0 156 27">
    <path fill="#1E1E1E" d="M32.75 2.97v19.65h3.38v-17h6.03v17h3.38V2.97H32.75ZM51.4 8.4h-3.08v18.32h3.32v-5.77a4.08 4.08 0 0 0 3.5 1.95c3.23 0 5.46-2.63 5.46-7.4 0-4.76-2.17-7.39-5.3-7.39a4.3 4.3 0 0 0-3.74 2.12l-.17-1.83Zm2.9 11.84c-1.76 0-2.66-1.44-2.66-4.72 0-3.3.95-4.75 2.82-4.75 1.82 0 2.71 1.44 2.71 4.72 0 3.31-.95 4.75-2.88 4.75ZM73.19 12.92c0-3.45-1.73-4.75-5.25-4.75-2.2 0-3.94.7-4.94 1.3v2.8a8.62 8.62 0 0 1 4.55-1.41c1.59 0 2.31.56 2.31 2.09v.8h-.53c-5.08 0-7.34 1.69-7.34 4.57 0 2.88 1.73 4.5 4.3 4.5 1.95 0 2.8-.65 3.43-1.33h.14c.03.36.14.85.26 1.13h3.23a36.24 36.24 0 0 1-.16-3.48v-6.22Zm-3.33 6.3c-.41.63-1.2 1.14-2.37 1.14-1.4 0-2.1-.8-2.1-2.01 0-1.61 1.15-2.2 4-2.2h.47v3.08ZM84.1 22.62h3.76l-5.33-7.55 4.7-6.67h-3.36l-4.69 6.67V8.4h-3.32v14.22h3.32v-6.87l4.91 6.87ZM99 11.05V8.4H87.86v2.65h3.91v11.57h3.32V11.05H99ZM100.97 8.4v14.22h2.96l5.08-8.8v8.8h3.21V8.4h-2.96l-5.08 8.79v-8.8h-3.2ZM123.25 22.62h3.77l-5.33-7.55 4.69-6.67h-3.35l-4.7 6.67V8.4h-3.32v14.22h3.33v-6.87l4.91 6.87ZM129.94 27c3.1 0 4.25-2.23 5.2-5.15l4.38-13.45h-3.21l-3.1 10.68-3.1-10.68h-3.49l4.83 14.84c-.36.68-.9 1.1-1.81 1.1-.62 0-1.15-.2-1.51-.56v2.74s.5.48 1.81.48ZM152.76 22.62H156l-.06-14.22h-4.55l-3.04 9.47-2.74-9.47h-4.83v14.22h2.82V11.99l3.04 10.63h2.71l3.4-10.63v10.63Z"/>
    <circle cx="13" cy="13" r="13" fill="#FC3F1D"/>
    <path fill="#fff" d="M15.05 21.13h2.83V4.88h-4.13c-4.14 0-6.32 2.12-6.32 5.26 0 2.7 1.41 4.23 3.91 5.89l1.52 1-1.95-1.63-3.86 5.72h3.07l4.13-6.15L12.8 14c-1.73-1.17-2.58-2.07-2.58-4.04 0-1.73 1.22-2.9 3.54-2.9h1.26v14.05h.02Z"/>
</svg>