<svg width="246" height="307" viewBox="0 0 246 307" fill="none" xmlns="http://www.w3.org/2000/svg">
<rect x="63" y="63.5" width="60" height="60" fill="#E9033A" stroke="black" stroke-opacity="0.85" stroke-width="6"/>
<rect x="63" y="3.5" width="60" height="60" stroke="black" stroke-opacity="0.85" stroke-width="6"/>
<rect x="123" y="3.5" width="60" height="60" stroke="black" stroke-opacity="0.85" stroke-width="6"/>
<rect x="183" y="3.5" width="60" height="60" fill="#348BDC" stroke="black" stroke-opacity="0.85" stroke-width="6"/>
<rect x="63" y="243.5" width="60" height="60" fill="#348BDC" stroke="black" stroke-opacity="0.85" stroke-width="6"/>
<rect x="183" y="183.5" width="60" height="60" fill="#FFBE5C" stroke="black" stroke-opacity="0.85" stroke-width="6"/>
<rect x="3" y="183.5" width="120" height="60" stroke="black" stroke-opacity="0.85" stroke-width="6"/>
<rect x="3" y="183.5" width="120" height="60" transform="rotate(-90 3 183.5)" stroke="black" stroke-opacity="0.85" stroke-width="6"/>
<path fill-rule="evenodd" clip-rule="evenodd" d="M123 180.5L66 180.5L66 126.5L180 126.5L180 183.5L180 300.5H126L126 183.5H123V180.5ZM120 186.5H63H60V183.5L60 123.5L60 120.5L63 120.5L183 120.5H186V123.5L186 183.5L186 303.5V306.5H183H123H120V303.5L120 186.5Z" fill="black" fill-opacity="0.85"/>
</svg>
