<svg width="40" height="41" viewBox="0 0 40 41" fill="none" xmlns="http://www.w3.org/2000/svg">
<rect width="40" height="40" transform="translate(0 0.5)" fill="white"/>
<path d="M3.42834 16.5469V9.81042H7.89679V10.9975H4.876V12.5417H7.5783V13.7288H4.876V16.5469H3.42834ZM10.2189 16.5469H8.79057V9.81042H11.3964C11.7245 9.81042 12.0173 9.86189 12.2746 9.96483C12.532 10.0613 12.7475 10.2029 12.9212 10.3895C13.1014 10.5761 13.2365 10.8013 13.3266 11.0651C13.4167 11.3289 13.4617 11.6248 13.4617 11.953C13.4617 12.4291 13.3588 12.8376 13.1529 13.1786C12.947 13.5197 12.6542 13.7448 12.2746 13.8542L13.5968 16.5469H12.014L10.8849 14.0472H10.2189V16.5469ZM11.0489 12.9277C11.3899 12.9277 11.6248 12.8634 11.7535 12.7347C11.8886 12.606 11.9561 12.3937 11.9561 12.0977V11.8082C11.9561 11.5122 11.8886 11.2999 11.7535 11.1712C11.6248 11.0425 11.3899 10.9782 11.0489 10.9782H10.2189V12.9277H11.0489ZM14.1818 16.5469V15.4756H15.6294V10.8817H14.1818V9.81042H18.5247V10.8817H17.0771V15.4756H18.5247V16.5469H14.1818ZM19.4764 9.81042H21.6479C22.5551 9.81042 23.2275 10.0999 23.665 10.679C24.1025 11.2581 24.3213 12.0913 24.3213 13.1786C24.3213 14.266 24.1025 15.0992 23.665 15.6783C23.2275 16.2573 22.5551 16.5469 21.6479 16.5469H19.4764V9.81042ZM21.5514 15.408C21.9825 15.408 22.2978 15.2697 22.4972 14.993C22.6967 14.7164 22.7964 14.3143 22.7964 13.7867V12.561C22.7964 12.0398 22.6967 11.6409 22.4972 11.3642C22.2978 11.0876 21.9825 10.9492 21.5514 10.9492H20.9048V15.408H21.5514ZM28.4578 16.5469L28.0332 14.9255H26.1898L25.7748 16.5469H24.3079L26.1319 9.81042H28.1779L30.002 16.5469H28.4578ZM27.1549 11.2098H27.0777L26.4214 13.7577H27.8112L27.1549 11.2098ZM31.8319 16.5469V14.1631L29.699 9.81042H31.3108L32.025 11.3739L32.5461 12.6961H32.6233L33.1445 11.3739L33.8587 9.81042H35.4125L33.2796 14.1631V16.5469H31.8319ZM4.58647 20.0688H4.48031V24.5469H3.24497V17.8104H4.98216L6.51668 22.2885H6.62285V17.8104H7.85819V24.5469H6.12099L4.58647 20.0688ZM8.78092 24.5469V23.4756H10.2286V18.8817H8.78092V17.8104H13.1239V18.8817H11.6762V23.4756H13.1239V24.5469H8.78092ZM17.4245 23.5914H17.3377C17.2798 23.733 17.209 23.8681 17.1253 23.9968C17.0417 24.1254 16.9388 24.2413 16.8165 24.3442C16.6943 24.4407 16.5495 24.5179 16.3822 24.5758C16.2214 24.6337 16.038 24.6627 15.8321 24.6627C15.504 24.6627 15.2112 24.5855 14.9538 24.4311C14.7029 24.2766 14.4906 24.0515 14.3169 23.7555C14.1432 23.4595 14.0113 23.0992 13.9212 22.6746C13.8375 22.2499 13.7957 21.7706 13.7957 21.2366C13.7957 20.0913 14.0048 19.2163 14.423 18.6115C14.8412 18.0002 15.4879 17.6946 16.3629 17.6946C16.7103 17.6946 17.016 17.7429 17.2798 17.8394C17.5436 17.9294 17.7687 18.0613 17.9553 18.2351C18.1484 18.4023 18.306 18.605 18.4282 18.8431C18.5505 19.0811 18.647 19.3449 18.7178 19.6345L17.3666 19.9626C17.328 19.8211 17.283 19.6859 17.2315 19.5573C17.1865 19.4221 17.1253 19.3031 17.0481 19.2002C16.9709 19.0972 16.8744 19.0168 16.7586 18.9589C16.6428 18.8946 16.5012 18.8624 16.334 18.8624C15.9672 18.8624 15.7066 19.0136 15.5522 19.316C15.4042 19.6184 15.3302 20.043 15.3302 20.5899V21.6902C15.3302 22.237 15.4107 22.6746 15.5715 23.0027C15.7388 23.3308 16.0315 23.4949 16.4498 23.4949C16.7779 23.4949 17.0224 23.3984 17.1832 23.2054C17.3441 23.0124 17.4245 22.7646 17.4245 22.4622V21.97H16.276V20.947H18.7178V24.5469H17.4245V23.5914ZM22.6034 21.7288H20.9048V24.5469H19.4475V17.8104H20.9048V20.5417H22.6034V17.8104H24.0607V24.5469H22.6034V21.7288ZM27.8788 18.9975V24.5469H26.4311V18.9975H24.4912V17.8104H29.8186V18.9975H27.8788ZM3.38973 32.5469V25.8104H5.99553C6.32366 25.8104 6.61641 25.8619 6.87377 25.9648C7.13114 26.0613 7.34668 26.2029 7.5204 26.3895C7.70055 26.5761 7.83567 26.8013 7.92574 27.0651C8.01582 27.3289 8.06086 27.6248 8.06086 27.953C8.06086 28.2811 8.01582 28.5771 7.92574 28.8409C7.83567 29.1047 7.70055 29.3298 7.5204 29.5164C7.34668 29.703 7.13114 29.8478 6.87377 29.9507C6.61641 30.0472 6.32366 30.0955 5.99553 30.0955H4.84705V32.5469H3.38973ZM4.84705 28.9277H5.62879C5.96979 28.9277 6.20463 28.8634 6.33331 28.7347C6.46843 28.606 6.53599 28.3937 6.53599 28.0977V27.8082C6.53599 27.5122 6.46843 27.2999 6.33331 27.1712C6.20463 27.0425 5.96979 26.9782 5.62879 26.9782H4.84705V28.9277ZM10.0356 25.8104V30.0762C10.0356 30.2885 10.042 30.4848 10.0549 30.6649C10.0742 30.8386 10.1128 30.9866 10.1707 31.1089C10.235 31.2311 10.3283 31.3276 10.4506 31.3984C10.5728 31.4627 10.7401 31.4949 10.9524 31.4949C11.1647 31.4949 11.332 31.4627 11.4543 31.3984C11.5765 31.3276 11.6666 31.2311 11.7245 31.1089C11.7888 30.9866 11.8274 30.8386 11.8403 30.6649C11.8596 30.4848 11.8693 30.2885 11.8693 30.0762V25.8104H13.3169V29.8832C13.3169 30.3464 13.2848 30.7518 13.2204 31.0992C13.1625 31.4467 13.0467 31.7362 12.873 31.9678C12.6993 32.1994 12.458 32.3732 12.1491 32.489C11.8403 32.6048 11.4414 32.6627 10.9524 32.6627C10.4634 32.6627 10.0645 32.6048 9.75568 32.489C9.44684 32.3732 9.20557 32.1994 9.03185 31.9678C8.85813 31.7362 8.7391 31.4467 8.67476 31.0992C8.61685 30.7518 8.5879 30.3464 8.5879 29.8832V25.8104H10.0356ZM16.2471 32.6627C15.6809 32.6627 15.1887 32.5694 14.7705 32.3828C14.3523 32.1962 14.0145 31.9421 13.7571 31.6204L14.5968 30.6939C14.8412 30.9641 15.1083 31.1636 15.3978 31.2922C15.6938 31.4209 15.9929 31.4853 16.2953 31.4853C16.6428 31.4853 16.9066 31.408 17.0867 31.2536C17.2669 31.0992 17.357 30.8772 17.357 30.5877C17.357 30.3496 17.2862 30.1695 17.1446 30.0472C17.0095 29.925 16.7779 29.8381 16.4498 29.7867L15.7452 29.6709C15.1404 29.5679 14.7029 29.3459 14.4327 29.0049C14.1625 28.6575 14.0273 28.2361 14.0273 27.7406C14.0273 27.0908 14.2397 26.5889 14.6643 26.2351C15.089 25.8748 15.6841 25.6946 16.4498 25.6946C16.9709 25.6946 17.4245 25.775 17.8106 25.9359C18.1966 26.0967 18.5087 26.3155 18.7467 26.5922L17.9264 27.509C17.7462 27.3096 17.5339 27.1551 17.2894 27.0458C17.0449 26.9299 16.7682 26.872 16.4594 26.872C15.8096 26.872 15.4847 27.139 15.4847 27.6731C15.4847 27.9047 15.5554 28.0784 15.697 28.1942C15.845 28.31 16.083 28.3969 16.4112 28.4548L17.1157 28.5803C17.6626 28.6768 18.084 28.8827 18.38 29.1979C18.6759 29.5132 18.8239 29.9379 18.8239 30.4719C18.8239 30.7872 18.7692 31.0799 18.6599 31.3501C18.5505 31.6139 18.3864 31.8456 18.1677 32.045C17.9489 32.238 17.6787 32.3892 17.357 32.4986C17.0417 32.608 16.6717 32.6627 16.2471 32.6627ZM22.6034 29.7288H20.9048V32.5469H19.4475V25.8104H20.9048V28.5417H22.6034V25.8104H24.0607V32.5469H22.6034V29.7288Z" fill="black" fill-opacity="0.85"/>
</svg>
