<svg width="246" height="367" viewBox="0 0 246 367" fill="none" xmlns="http://www.w3.org/2000/svg">
<rect x="63" y="123.5" width="60" height="60" fill="#E9033A" stroke="black" stroke-width="6"/>
<rect x="63" y="63.5" width="60" height="60" stroke="black" stroke-width="6"/>
<rect x="123" y="63.5" width="60" height="60" stroke="black" stroke-width="6"/>
<rect x="183" y="63.5" width="60" height="60" fill="#348BDC" stroke="black" stroke-width="6"/>
<rect x="63" y="303.5" width="60" height="60" fill="#348BDC" stroke="black" stroke-width="6"/>
<rect x="183" y="243.5" width="60" height="60" fill="#FFBE5C" stroke="black" stroke-width="6"/>
<rect x="3" y="243.5" width="120" height="60" stroke="black" stroke-width="6"/>
<rect x="3" y="243.5" width="120" height="60" transform="rotate(-90 3 243.5)" stroke="black" stroke-width="6"/>
<path fill-rule="evenodd" clip-rule="evenodd" d="M123 240.5L66 240.5L66 186.5L180 186.5L180 243.5L180 360.5H126L126 243.5H123V240.5ZM120 246.5H63H60V243.5L60 183.5L60 180.5L63 180.5L183 180.5H186V183.5L186 243.5L186 363.5V366.5H183H123H120V363.5L120 246.5Z" fill="black"/>
<rect x="63" y="3.5" width="180" height="60" stroke="black" stroke-width="6"/>
<path d="M78.3963 44.5V22.6818H82.9347V30.8849H83.0732C83.272 30.4446 83.5597 29.9972 83.9361 29.5426C84.3196 29.081 84.8168 28.6974 85.4276 28.392C86.0455 28.0795 86.8125 27.9233 87.7287 27.9233C88.9219 27.9233 90.0227 28.2358 91.0312 28.8608C92.0398 29.4787 92.8459 30.4126 93.4496 31.6626C94.0533 32.9055 94.3551 34.4645 94.3551 36.3395C94.3551 38.1648 94.0604 39.706 93.4709 40.9631C92.8885 42.2131 92.093 43.1612 91.0845 43.8075C90.0831 44.4467 88.9609 44.7663 87.718 44.7663C86.8374 44.7663 86.0881 44.6207 85.4702 44.3295C84.8594 44.0384 84.3587 43.6726 83.968 43.2322C83.5774 42.7848 83.2791 42.3338 83.0732 41.8793H82.8707V44.5H78.3963ZM82.8388 36.3182C82.8388 37.2912 82.9737 38.1399 83.2436 38.8643C83.5135 39.5888 83.9041 40.1534 84.4155 40.5582C84.9268 40.956 85.5483 41.1548 86.2798 41.1548C87.0185 41.1548 87.6435 40.9524 88.1548 40.5476C88.6662 40.1357 89.0533 39.5675 89.3161 38.843C89.5859 38.1115 89.7209 37.2699 89.7209 36.3182C89.7209 35.3736 89.5895 34.5426 89.3267 33.8253C89.0639 33.108 88.6768 32.5469 88.1655 32.142C87.6541 31.7372 87.0256 31.5348 86.2798 31.5348C85.5412 31.5348 84.9162 31.7301 84.4048 32.1207C83.9006 32.5114 83.5135 33.0653 83.2436 33.7827C82.9737 34.5 82.8388 35.3452 82.8388 36.3182ZM101.922 22.6818V44.5H97.3833V22.6818H101.922ZM112.951 44.8196C111.296 44.8196 109.865 44.468 108.657 43.7649C107.457 43.0547 106.53 42.0675 105.877 40.8033C105.223 39.532 104.897 38.0582 104.897 36.3821C104.897 34.6918 105.223 33.2145 105.877 31.9503C106.53 30.679 107.457 29.6918 108.657 28.9886C109.865 28.2784 111.296 27.9233 112.951 27.9233C114.605 27.9233 116.033 28.2784 117.233 28.9886C118.441 29.6918 119.371 30.679 120.025 31.9503C120.678 33.2145 121.005 34.6918 121.005 36.3821C121.005 38.0582 120.678 39.532 120.025 40.8033C119.371 42.0675 118.441 43.0547 117.233 43.7649C116.033 44.468 114.605 44.8196 112.951 44.8196ZM112.972 41.304C113.725 41.304 114.353 41.0909 114.858 40.6648C115.362 40.2315 115.742 39.642 115.998 38.8963C116.26 38.1506 116.392 37.3018 116.392 36.3501C116.392 35.3984 116.26 34.5497 115.998 33.804C115.742 33.0582 115.362 32.4687 114.858 32.0355C114.353 31.6023 113.725 31.3857 112.972 31.3857C112.212 31.3857 111.573 31.6023 111.054 32.0355C110.543 32.4687 110.156 33.0582 109.893 33.804C109.637 34.5497 109.51 35.3984 109.51 36.3501C109.51 37.3018 109.637 38.1506 109.893 38.8963C110.156 39.642 110.543 40.2315 111.054 40.6648C111.573 41.0909 112.212 41.304 112.972 41.304ZM131.349 44.8196C129.673 44.8196 128.231 44.4645 127.024 43.7543C125.824 43.0369 124.9 42.0426 124.254 40.7713C123.615 39.5 123.295 38.0369 123.295 36.3821C123.295 34.706 123.618 33.2358 124.265 31.9716C124.918 30.7003 125.845 29.7095 127.045 28.9993C128.245 28.282 129.673 27.9233 131.328 27.9233C132.755 27.9233 134.005 28.1825 135.078 28.701C136.15 29.2195 136.999 29.9474 137.624 30.8849C138.249 31.8224 138.593 32.9233 138.657 34.1875H134.375C134.254 33.3707 133.934 32.7138 133.416 32.2166C132.904 31.7124 132.233 31.4602 131.402 31.4602C130.699 31.4602 130.085 31.652 129.559 32.0355C129.041 32.4119 128.636 32.9624 128.345 33.6868C128.054 34.4112 127.908 35.2884 127.908 36.3182C127.908 37.3622 128.05 38.25 128.334 38.9815C128.625 39.7131 129.034 40.2706 129.559 40.6541C130.085 41.0376 130.699 41.2294 131.402 41.2294C131.921 41.2294 132.386 41.1229 132.798 40.9098C133.217 40.6967 133.561 40.3878 133.831 39.983C134.108 39.571 134.289 39.0774 134.375 38.5021H138.657C138.586 39.7521 138.245 40.853 137.635 41.8047C137.031 42.7493 136.196 43.4879 135.131 44.0206C134.066 44.5533 132.805 44.8196 131.349 44.8196ZM145.675 39.7912L145.686 34.3473H146.346L151.588 28.1364H156.797L149.756 36.3608H148.68L145.675 39.7912ZM141.563 44.5V22.6818H146.101V44.5H141.563ZM151.79 44.5L146.975 37.3729L150.001 34.1662L157.106 44.5H151.79ZM163.562 35.0398V44.5H159.024V22.6818H163.434V31.0234H163.626C163.996 30.0575 164.592 29.3011 165.416 28.7543C166.24 28.2003 167.273 27.9233 168.516 27.9233C169.653 27.9233 170.643 28.1719 171.488 28.669C172.341 29.1591 173.001 29.8658 173.47 30.7891C173.946 31.7053 174.18 32.8026 174.173 34.081V44.5H169.635V34.8906C169.642 33.8821 169.386 33.0973 168.868 32.5362C168.356 31.9751 167.639 31.6946 166.716 31.6946C166.098 31.6946 165.551 31.826 165.075 32.0888C164.606 32.3516 164.237 32.7351 163.967 33.2393C163.704 33.7365 163.569 34.3366 163.562 35.0398ZM182.411 44.8089C181.367 44.8089 180.436 44.6278 179.62 44.2656C178.803 43.8963 178.157 43.353 177.681 42.6357C177.212 41.9112 176.978 41.0092 176.978 39.9297C176.978 39.0206 177.145 38.2571 177.478 37.6392C177.812 37.0213 178.267 36.5241 178.842 36.1477C179.417 35.7713 180.071 35.4872 180.802 35.2955C181.541 35.1037 182.315 34.9688 183.125 34.8906C184.076 34.7912 184.843 34.6989 185.426 34.6136C186.008 34.5213 186.431 34.3864 186.694 34.2088C186.956 34.0312 187.088 33.7685 187.088 33.4205V33.3565C187.088 32.6818 186.875 32.1598 186.449 31.7905C186.029 31.4212 185.433 31.2365 184.659 31.2365C183.842 31.2365 183.192 31.4176 182.709 31.7798C182.226 32.1349 181.907 32.5824 181.75 33.1222L177.553 32.7812C177.766 31.7869 178.185 30.9276 178.81 30.2031C179.435 29.4716 180.241 28.9105 181.228 28.5199C182.223 28.1222 183.373 27.9233 184.68 27.9233C185.589 27.9233 186.459 28.0298 187.29 28.2429C188.128 28.456 188.87 28.7862 189.517 29.2337C190.17 29.6811 190.685 30.2564 191.061 30.9595C191.438 31.6555 191.626 32.4901 191.626 33.4631V44.5H187.322V42.2308H187.194C186.931 42.7422 186.58 43.1932 186.14 43.5838C185.699 43.9673 185.17 44.2692 184.552 44.4893C183.934 44.7024 183.221 44.8089 182.411 44.8089ZM183.711 41.6768C184.378 41.6768 184.968 41.5455 185.479 41.2827C185.99 41.0128 186.392 40.6506 186.683 40.196C186.974 39.7415 187.12 39.2266 187.12 38.6513V36.9148C186.978 37.0071 186.782 37.0923 186.534 37.1705C186.292 37.2415 186.019 37.3089 185.713 37.3729C185.408 37.4297 185.103 37.483 184.797 37.5327C184.492 37.5753 184.215 37.6143 183.966 37.6499C183.434 37.728 182.968 37.8523 182.571 38.0227C182.173 38.1932 181.864 38.424 181.644 38.7152C181.424 38.9993 181.314 39.3544 181.314 39.7805C181.314 40.3984 181.537 40.8707 181.985 41.1974C182.439 41.517 183.015 41.6768 183.711 41.6768ZM205.641 37.5327V28.1364H210.179V44.5H205.822V41.5277H205.651C205.282 42.4865 204.668 43.2571 203.808 43.8395C202.956 44.4219 201.915 44.7131 200.687 44.7131C199.593 44.7131 198.631 44.4645 197.8 43.9673C196.969 43.4702 196.319 42.7635 195.85 41.8473C195.388 40.9311 195.154 39.8338 195.147 38.5554V28.1364H199.685V37.7457C199.692 38.7116 199.952 39.4751 200.463 40.0362C200.974 40.5973 201.66 40.8778 202.519 40.8778C203.066 40.8778 203.577 40.7536 204.053 40.505C204.529 40.2493 204.913 39.8729 205.204 39.3757C205.502 38.8786 205.648 38.2642 205.641 37.5327ZM227.424 32.8026L223.269 33.0582C223.198 32.7031 223.046 32.3835 222.811 32.0994C222.577 31.8082 222.268 31.5774 221.884 31.407C221.508 31.2294 221.057 31.1406 220.531 31.1406C219.828 31.1406 219.235 31.2898 218.752 31.5881C218.269 31.8793 218.028 32.2699 218.028 32.7599C218.028 33.1506 218.184 33.4808 218.497 33.7507C218.809 34.0206 219.345 34.2372 220.105 34.4006L223.067 34.9972C224.658 35.3239 225.844 35.8494 226.625 36.5739C227.406 37.2983 227.797 38.25 227.797 39.429C227.797 40.5014 227.481 41.4425 226.849 42.2521C226.224 43.0618 225.365 43.6939 224.271 44.1484C223.184 44.5959 221.931 44.8196 220.51 44.8196C218.344 44.8196 216.618 44.3686 215.333 43.4666C214.054 42.5575 213.305 41.3217 213.085 39.7592L217.548 39.5249C217.683 40.1854 218.01 40.6896 218.529 41.0376C219.047 41.3786 219.711 41.549 220.521 41.549C221.316 41.549 221.955 41.3963 222.438 41.0909C222.928 40.7784 223.177 40.3771 223.184 39.8871C223.177 39.4751 223.003 39.1378 222.662 38.875C222.321 38.6051 221.796 38.3991 221.085 38.2571L218.252 37.6925C216.654 37.3729 215.464 36.8189 214.683 36.0305C213.909 35.2422 213.521 34.2372 213.521 33.0156C213.521 31.9645 213.806 31.0589 214.374 30.299C214.949 29.5391 215.755 28.9531 216.792 28.5412C217.836 28.1293 219.058 27.9233 220.457 27.9233C222.524 27.9233 224.15 28.3601 225.336 29.2337C226.529 30.1072 227.225 31.2969 227.424 32.8026Z" fill="black"/>
<path d="M78.3963 44.5V22.6818H82.9347V30.8849H83.0732C83.272 30.4446 83.5597 29.9972 83.9361 29.5426C84.3196 29.081 84.8168 28.6974 85.4276 28.392C86.0455 28.0795 86.8125 27.9233 87.7287 27.9233C88.9219 27.9233 90.0227 28.2358 91.0312 28.8608C92.0398 29.4787 92.8459 30.4126 93.4496 31.6626C94.0533 32.9055 94.3551 34.4645 94.3551 36.3395C94.3551 38.1648 94.0604 39.706 93.4709 40.9631C92.8885 42.2131 92.093 43.1612 91.0845 43.8075C90.0831 44.4467 88.9609 44.7663 87.718 44.7663C86.8374 44.7663 86.0881 44.6207 85.4702 44.3295C84.8594 44.0384 84.3587 43.6726 83.968 43.2322C83.5774 42.7848 83.2791 42.3338 83.0732 41.8793H82.8707V44.5H78.3963ZM82.8388 36.3182C82.8388 37.2912 82.9737 38.1399 83.2436 38.8643C83.5135 39.5888 83.9041 40.1534 84.4155 40.5582C84.9268 40.956 85.5483 41.1548 86.2798 41.1548C87.0185 41.1548 87.6435 40.9524 88.1548 40.5476C88.6662 40.1357 89.0533 39.5675 89.3161 38.843C89.5859 38.1115 89.7209 37.2699 89.7209 36.3182C89.7209 35.3736 89.5895 34.5426 89.3267 33.8253C89.0639 33.108 88.6768 32.5469 88.1655 32.142C87.6541 31.7372 87.0256 31.5348 86.2798 31.5348C85.5412 31.5348 84.9162 31.7301 84.4048 32.1207C83.9006 32.5114 83.5135 33.0653 83.2436 33.7827C82.9737 34.5 82.8388 35.3452 82.8388 36.3182ZM101.922 22.6818V44.5H97.3833V22.6818H101.922ZM112.951 44.8196C111.296 44.8196 109.865 44.468 108.657 43.7649C107.457 43.0547 106.53 42.0675 105.877 40.8033C105.223 39.532 104.897 38.0582 104.897 36.3821C104.897 34.6918 105.223 33.2145 105.877 31.9503C106.53 30.679 107.457 29.6918 108.657 28.9886C109.865 28.2784 111.296 27.9233 112.951 27.9233C114.605 27.9233 116.033 28.2784 117.233 28.9886C118.441 29.6918 119.371 30.679 120.025 31.9503C120.678 33.2145 121.005 34.6918 121.005 36.3821C121.005 38.0582 120.678 39.532 120.025 40.8033C119.371 42.0675 118.441 43.0547 117.233 43.7649C116.033 44.468 114.605 44.8196 112.951 44.8196ZM112.972 41.304C113.725 41.304 114.353 41.0909 114.858 40.6648C115.362 40.2315 115.742 39.642 115.998 38.8963C116.26 38.1506 116.392 37.3018 116.392 36.3501C116.392 35.3984 116.26 34.5497 115.998 33.804C115.742 33.0582 115.362 32.4687 114.858 32.0355C114.353 31.6023 113.725 31.3857 112.972 31.3857C112.212 31.3857 111.573 31.6023 111.054 32.0355C110.543 32.4687 110.156 33.0582 109.893 33.804C109.637 34.5497 109.51 35.3984 109.51 36.3501C109.51 37.3018 109.637 38.1506 109.893 38.8963C110.156 39.642 110.543 40.2315 111.054 40.6648C111.573 41.0909 112.212 41.304 112.972 41.304ZM131.349 44.8196C129.673 44.8196 128.231 44.4645 127.024 43.7543C125.824 43.0369 124.9 42.0426 124.254 40.7713C123.615 39.5 123.295 38.0369 123.295 36.3821C123.295 34.706 123.618 33.2358 124.265 31.9716C124.918 30.7003 125.845 29.7095 127.045 28.9993C128.245 28.282 129.673 27.9233 131.328 27.9233C132.755 27.9233 134.005 28.1825 135.078 28.701C136.15 29.2195 136.999 29.9474 137.624 30.8849C138.249 31.8224 138.593 32.9233 138.657 34.1875H134.375C134.254 33.3707 133.934 32.7138 133.416 32.2166C132.904 31.7124 132.233 31.4602 131.402 31.4602C130.699 31.4602 130.085 31.652 129.559 32.0355C129.041 32.4119 128.636 32.9624 128.345 33.6868C128.054 34.4112 127.908 35.2884 127.908 36.3182C127.908 37.3622 128.05 38.25 128.334 38.9815C128.625 39.7131 129.034 40.2706 129.559 40.6541C130.085 41.0376 130.699 41.2294 131.402 41.2294C131.921 41.2294 132.386 41.1229 132.798 40.9098C133.217 40.6967 133.561 40.3878 133.831 39.983C134.108 39.571 134.289 39.0774 134.375 38.5021H138.657C138.586 39.7521 138.245 40.853 137.635 41.8047C137.031 42.7493 136.196 43.4879 135.131 44.0206C134.066 44.5533 132.805 44.8196 131.349 44.8196ZM145.675 39.7912L145.686 34.3473H146.346L151.588 28.1364H156.797L149.756 36.3608H148.68L145.675 39.7912ZM141.563 44.5V22.6818H146.101V44.5H141.563ZM151.79 44.5L146.975 37.3729L150.001 34.1662L157.106 44.5H151.79ZM163.562 35.0398V44.5H159.024V22.6818H163.434V31.0234H163.626C163.996 30.0575 164.592 29.3011 165.416 28.7543C166.24 28.2003 167.273 27.9233 168.516 27.9233C169.653 27.9233 170.643 28.1719 171.488 28.669C172.341 29.1591 173.001 29.8658 173.47 30.7891C173.946 31.7053 174.18 32.8026 174.173 34.081V44.5H169.635V34.8906C169.642 33.8821 169.386 33.0973 168.868 32.5362C168.356 31.9751 167.639 31.6946 166.716 31.6946C166.098 31.6946 165.551 31.826 165.075 32.0888C164.606 32.3516 164.237 32.7351 163.967 33.2393C163.704 33.7365 163.569 34.3366 163.562 35.0398ZM182.411 44.8089C181.367 44.8089 180.436 44.6278 179.62 44.2656C178.803 43.8963 178.157 43.353 177.681 42.6357C177.212 41.9112 176.978 41.0092 176.978 39.9297C176.978 39.0206 177.145 38.2571 177.478 37.6392C177.812 37.0213 178.267 36.5241 178.842 36.1477C179.417 35.7713 180.071 35.4872 180.802 35.2955C181.541 35.1037 182.315 34.9688 183.125 34.8906C184.076 34.7912 184.843 34.6989 185.426 34.6136C186.008 34.5213 186.431 34.3864 186.694 34.2088C186.956 34.0312 187.088 33.7685 187.088 33.4205V33.3565C187.088 32.6818 186.875 32.1598 186.449 31.7905C186.029 31.4212 185.433 31.2365 184.659 31.2365C183.842 31.2365 183.192 31.4176 182.709 31.7798C182.226 32.1349 181.907 32.5824 181.75 33.1222L177.553 32.7812C177.766 31.7869 178.185 30.9276 178.81 30.2031C179.435 29.4716 180.241 28.9105 181.228 28.5199C182.223 28.1222 183.373 27.9233 184.68 27.9233C185.589 27.9233 186.459 28.0298 187.29 28.2429C188.128 28.456 188.87 28.7862 189.517 29.2337C190.17 29.6811 190.685 30.2564 191.061 30.9595C191.438 31.6555 191.626 32.4901 191.626 33.4631V44.5H187.322V42.2308H187.194C186.931 42.7422 186.58 43.1932 186.14 43.5838C185.699 43.9673 185.17 44.2692 184.552 44.4893C183.934 44.7024 183.221 44.8089 182.411 44.8089ZM183.711 41.6768C184.378 41.6768 184.968 41.5455 185.479 41.2827C185.99 41.0128 186.392 40.6506 186.683 40.196C186.974 39.7415 187.12 39.2266 187.12 38.6513V36.9148C186.978 37.0071 186.782 37.0923 186.534 37.1705C186.292 37.2415 186.019 37.3089 185.713 37.3729C185.408 37.4297 185.103 37.483 184.797 37.5327C184.492 37.5753 184.215 37.6143 183.966 37.6499C183.434 37.728 182.968 37.8523 182.571 38.0227C182.173 38.1932 181.864 38.424 181.644 38.7152C181.424 38.9993 181.314 39.3544 181.314 39.7805C181.314 40.3984 181.537 40.8707 181.985 41.1974C182.439 41.517 183.015 41.6768 183.711 41.6768ZM205.641 37.5327V28.1364H210.179V44.5H205.822V41.5277H205.651C205.282 42.4865 204.668 43.2571 203.808 43.8395C202.956 44.4219 201.915 44.7131 200.687 44.7131C199.593 44.7131 198.631 44.4645 197.8 43.9673C196.969 43.4702 196.319 42.7635 195.85 41.8473C195.388 40.9311 195.154 39.8338 195.147 38.5554V28.1364H199.685V37.7457C199.692 38.7116 199.952 39.4751 200.463 40.0362C200.974 40.5973 201.66 40.8778 202.519 40.8778C203.066 40.8778 203.577 40.7536 204.053 40.505C204.529 40.2493 204.913 39.8729 205.204 39.3757C205.502 38.8786 205.648 38.2642 205.641 37.5327ZM227.424 32.8026L223.269 33.0582C223.198 32.7031 223.046 32.3835 222.811 32.0994C222.577 31.8082 222.268 31.5774 221.884 31.407C221.508 31.2294 221.057 31.1406 220.531 31.1406C219.828 31.1406 219.235 31.2898 218.752 31.5881C218.269 31.8793 218.028 32.2699 218.028 32.7599C218.028 33.1506 218.184 33.4808 218.497 33.7507C218.809 34.0206 219.345 34.2372 220.105 34.4006L223.067 34.9972C224.658 35.3239 225.844 35.8494 226.625 36.5739C227.406 37.2983 227.797 38.25 227.797 39.429C227.797 40.5014 227.481 41.4425 226.849 42.2521C226.224 43.0618 225.365 43.6939 224.271 44.1484C223.184 44.5959 221.931 44.8196 220.51 44.8196C218.344 44.8196 216.618 44.3686 215.333 43.4666C214.054 42.5575 213.305 41.3217 213.085 39.7592L217.548 39.5249C217.683 40.1854 218.01 40.6896 218.529 41.0376C219.047 41.3786 219.711 41.549 220.521 41.549C221.316 41.549 221.955 41.3963 222.438 41.0909C222.928 40.7784 223.177 40.3771 223.184 39.8871C223.177 39.4751 223.003 39.1378 222.662 38.875C222.321 38.6051 221.796 38.3991 221.085 38.2571L218.252 37.6925C216.654 37.3729 215.464 36.8189 214.683 36.0305C213.909 35.2422 213.521 34.2372 213.521 33.0156C213.521 31.9645 213.806 31.0589 214.374 30.299C214.949 29.5391 215.755 28.9531 216.792 28.5412C217.836 28.1293 219.058 27.9233 220.457 27.9233C222.524 27.9233 224.15 28.3601 225.336 29.2337C226.529 30.1072 227.225 31.2969 227.424 32.8026Z" fill="black"/>
<rect x="3" y="3.5" width="60" height="60" fill="#348BDC" stroke="black" stroke-width="6"/>
</svg>
