<svg width="388" height="88" viewBox="0 0 388 88" fill="none" xmlns="http://www.w3.org/2000/svg">
<rect x="4" y="4" width="80" height="80" fill="#0571CA" stroke="black" stroke-width="7"/>
<path d="M84 4V0.5H80.5V4H84ZM84 84H80.5V87.5H84V84ZM384 84V87.5H387.5V84H384ZM384 4H387.5V0.5H384V4ZM84 7.5H234V0.5H84V7.5ZM87.5 84V4H80.5V84H87.5ZM234 80.5H84V87.5H234V80.5ZM384 80.5H234V87.5H384V80.5ZM380.5 4V84H387.5V4H380.5ZM234 7.5H384V0.5H234V7.5Z" fill="black"/>
<path d="M115.034 61V26.0909H122.295V39.2159H122.517C122.835 38.5114 123.295 37.7955 123.898 37.0682C124.511 36.3295 125.307 35.7159 126.284 35.2273C127.273 34.7273 128.5 34.4773 129.966 34.4773C131.875 34.4773 133.636 34.9773 135.25 35.9773C136.864 36.9659 138.153 38.4602 139.119 40.4602C140.085 42.4489 140.568 44.9432 140.568 47.9432C140.568 50.8636 140.097 53.3295 139.153 55.3409C138.222 57.3409 136.949 58.858 135.335 59.892C133.733 60.9148 131.938 61.4261 129.949 61.4261C128.54 61.4261 127.341 61.1932 126.352 60.7273C125.375 60.2614 124.574 59.6761 123.949 58.9716C123.324 58.2557 122.847 57.5341 122.517 56.8068H122.193V61H115.034ZM122.142 47.9091C122.142 49.4659 122.358 50.8239 122.79 51.983C123.222 53.142 123.847 54.0455 124.665 54.6932C125.483 55.3295 126.477 55.6477 127.648 55.6477C128.83 55.6477 129.83 55.3239 130.648 54.6761C131.466 54.017 132.085 53.108 132.506 51.9489C132.938 50.7784 133.153 49.4318 133.153 47.9091C133.153 46.3977 132.943 45.0682 132.523 43.9205C132.102 42.7727 131.483 41.875 130.665 41.2273C129.847 40.5795 128.841 40.2557 127.648 40.2557C126.466 40.2557 125.466 40.5682 124.648 41.1932C123.841 41.8182 123.222 42.7045 122.79 43.8523C122.358 45 122.142 46.3523 122.142 47.9091ZM152.675 26.0909V61H145.413V26.0909H152.675ZM170.321 61.5114C167.673 61.5114 165.384 60.9489 163.452 59.8239C161.531 58.6875 160.048 57.108 159.003 55.0852C157.957 53.0511 157.435 50.6932 157.435 48.0114C157.435 45.3068 157.957 42.9432 159.003 40.9205C160.048 38.8864 161.531 37.3068 163.452 36.1818C165.384 35.0455 167.673 34.4773 170.321 34.4773C172.969 34.4773 175.253 35.0455 177.173 36.1818C179.105 37.3068 180.594 38.8864 181.639 40.9205C182.685 42.9432 183.207 45.3068 183.207 48.0114C183.207 50.6932 182.685 53.0511 181.639 55.0852C180.594 57.108 179.105 58.6875 177.173 59.8239C175.253 60.9489 172.969 61.5114 170.321 61.5114ZM170.355 55.8864C171.56 55.8864 172.565 55.5455 173.372 54.8636C174.179 54.1705 174.787 53.2273 175.196 52.0341C175.616 50.8409 175.827 49.483 175.827 47.9602C175.827 46.4375 175.616 45.0795 175.196 43.8864C174.787 42.6932 174.179 41.75 173.372 41.0568C172.565 40.3636 171.56 40.017 170.355 40.017C169.139 40.017 168.116 40.3636 167.287 41.0568C166.469 41.75 165.849 42.6932 165.429 43.8864C165.02 45.0795 164.815 46.4375 164.815 47.9602C164.815 49.483 165.02 50.8409 165.429 52.0341C165.849 53.2273 166.469 54.1705 167.287 54.8636C168.116 55.5455 169.139 55.8864 170.355 55.8864ZM199.759 61.5114C197.077 61.5114 194.77 60.9432 192.838 59.8068C190.918 58.6591 189.44 57.0682 188.406 55.0341C187.384 53 186.872 50.6591 186.872 48.0114C186.872 45.3295 187.389 42.9773 188.423 40.9545C189.469 38.9205 190.952 37.3352 192.872 36.1989C194.793 35.0511 197.077 34.4773 199.724 34.4773C202.009 34.4773 204.009 34.892 205.724 35.7216C207.44 36.5511 208.798 37.7159 209.798 39.2159C210.798 40.7159 211.349 42.4773 211.452 44.5H204.599C204.406 43.1932 203.895 42.142 203.065 41.3466C202.247 40.5398 201.173 40.1364 199.844 40.1364C198.719 40.1364 197.736 40.4432 196.895 41.0568C196.065 41.6591 195.418 42.5398 194.952 43.6989C194.486 44.858 194.253 46.2614 194.253 47.9091C194.253 49.5795 194.48 51 194.935 52.1705C195.401 53.3409 196.054 54.233 196.895 54.8466C197.736 55.4602 198.719 55.767 199.844 55.767C200.673 55.767 201.418 55.5966 202.077 55.2557C202.747 54.9148 203.298 54.4205 203.73 53.7727C204.173 53.1136 204.463 52.3239 204.599 51.4034H211.452C211.338 53.4034 210.793 55.1648 209.815 56.6875C208.849 58.1989 207.514 59.3807 205.81 60.233C204.105 61.0852 202.088 61.5114 199.759 61.5114ZM222.68 53.4659L222.697 44.7557H223.754L232.141 34.8182H240.476L229.209 47.9773H227.487L222.68 53.4659ZM216.101 61V26.0909H223.362V61H216.101ZM232.464 61L224.76 49.5966L229.601 44.4659L240.97 61H232.464ZM251.3 45.8636V61H244.038V26.0909H251.095V39.4375H251.402C251.993 37.892 252.947 36.6818 254.266 35.8068C255.584 34.9205 257.237 34.4773 259.226 34.4773C261.044 34.4773 262.629 34.875 263.982 35.6705C265.345 36.4545 266.402 37.5852 267.152 39.0625C267.913 40.5284 268.288 42.2841 268.277 44.3295V61H261.016V45.625C261.027 44.0114 260.618 42.7557 259.788 41.858C258.97 40.9602 257.822 40.5114 256.345 40.5114C255.357 40.5114 254.482 40.7216 253.72 41.142C252.97 41.5625 252.379 42.1761 251.947 42.983C251.527 43.7784 251.311 44.7386 251.3 45.8636ZM281.457 61.4943C279.787 61.4943 278.298 61.2045 276.991 60.625C275.685 60.0341 274.651 59.1648 273.889 58.017C273.139 56.858 272.764 55.4148 272.764 53.6875C272.764 52.233 273.031 51.0114 273.565 50.0227C274.099 49.0341 274.827 48.2386 275.747 47.6364C276.668 47.0341 277.713 46.5795 278.884 46.2727C280.065 45.9659 281.304 45.75 282.599 45.625C284.122 45.4659 285.349 45.3182 286.281 45.1818C287.213 45.0341 287.889 44.8182 288.31 44.5341C288.73 44.25 288.94 43.8295 288.94 43.2727V43.1705C288.94 42.0909 288.599 41.2557 287.918 40.6648C287.247 40.0739 286.293 39.7784 285.054 39.7784C283.747 39.7784 282.707 40.0682 281.935 40.6477C281.162 41.2159 280.651 41.9318 280.401 42.7955L273.685 42.25C274.026 40.6591 274.696 39.2841 275.696 38.125C276.696 36.9545 277.986 36.0568 279.565 35.4318C281.156 34.7955 282.997 34.4773 285.088 34.4773C286.543 34.4773 287.935 34.6477 289.264 34.9886C290.605 35.3295 291.793 35.858 292.827 36.5739C293.872 37.2898 294.696 38.2102 295.298 39.3352C295.901 40.4489 296.202 41.7841 296.202 43.3409V61H289.315V57.3693H289.111C288.69 58.1875 288.128 58.9091 287.423 59.5341C286.719 60.1477 285.872 60.6307 284.884 60.983C283.895 61.3239 282.753 61.4943 281.457 61.4943ZM283.537 56.483C284.605 56.483 285.548 56.2727 286.366 55.8523C287.185 55.4205 287.827 54.8409 288.293 54.1136C288.759 53.3864 288.991 52.5625 288.991 51.642V48.8636C288.764 49.0114 288.452 49.1477 288.054 49.2727C287.668 49.3864 287.23 49.4943 286.741 49.5966C286.253 49.6875 285.764 49.7727 285.276 49.8523C284.787 49.9205 284.344 49.983 283.946 50.0398C283.094 50.1648 282.349 50.3636 281.713 50.6364C281.077 50.9091 280.582 51.2784 280.23 51.7443C279.878 52.1989 279.702 52.767 279.702 53.4489C279.702 54.4375 280.06 55.1932 280.776 55.7159C281.503 56.2273 282.423 56.483 283.537 56.483ZM318.625 49.8523V34.8182H325.886V61H318.915V56.2443H318.642C318.051 57.7784 317.068 59.0114 315.693 59.9432C314.33 60.875 312.665 61.3409 310.699 61.3409C308.949 61.3409 307.409 60.9432 306.08 60.1477C304.75 59.3523 303.71 58.2216 302.96 56.7557C302.222 55.2898 301.847 53.5341 301.835 51.4886V34.8182H309.097V50.1932C309.108 51.7386 309.523 52.9602 310.341 53.858C311.159 54.7557 312.256 55.2045 313.631 55.2045C314.506 55.2045 315.324 55.0057 316.085 54.608C316.847 54.1989 317.46 53.5966 317.926 52.8011C318.403 52.0057 318.636 51.0227 318.625 49.8523ZM353.479 42.2841L346.831 42.6932C346.717 42.125 346.473 41.6136 346.098 41.1591C345.723 40.6932 345.229 40.3239 344.615 40.0511C344.013 39.767 343.291 39.625 342.45 39.625C341.325 39.625 340.376 39.8636 339.604 40.3409C338.831 40.8068 338.445 41.4318 338.445 42.2159C338.445 42.8409 338.695 43.3693 339.195 43.8011C339.695 44.233 340.553 44.5795 341.768 44.8409L346.507 45.7955C349.053 46.3182 350.95 47.1591 352.2 48.3182C353.45 49.4773 354.075 51 354.075 52.8864C354.075 54.6023 353.57 56.108 352.558 57.4034C351.558 58.6989 350.183 59.7102 348.433 60.4375C346.695 61.1534 344.689 61.5114 342.416 61.5114C338.95 61.5114 336.189 60.7898 334.132 59.3466C332.087 57.892 330.888 55.9148 330.536 53.4148L337.678 53.0398C337.893 54.0966 338.416 54.9034 339.246 55.4602C340.075 56.0057 341.138 56.2784 342.433 56.2784C343.706 56.2784 344.729 56.0341 345.501 55.5455C346.286 55.0455 346.683 54.4034 346.695 53.6193C346.683 52.9602 346.405 52.4205 345.859 52C345.314 51.5682 344.473 51.2386 343.337 51.0114L338.803 50.108C336.246 49.5966 334.342 48.7102 333.092 47.4489C331.854 46.1875 331.234 44.5795 331.234 42.625C331.234 40.9432 331.689 39.4943 332.598 38.2784C333.518 37.0625 334.808 36.125 336.467 35.4659C338.138 34.8068 340.092 34.4773 342.331 34.4773C345.638 34.4773 348.24 35.1761 350.138 36.5739C352.047 37.9716 353.161 39.875 353.479 42.2841Z" fill="black"/>
</svg>
